<?xml version="1.0" encoding="UTF-8" standalone="no"?>
<!-- Created with Inkscape (http://www.inkscape.org/) -->

<svg
   xmlns:dc="http://purl.org/dc/elements/1.1/"
   xmlns:cc="http://creativecommons.org/ns#"
   xmlns:rdf="http://www.w3.org/1999/02/22-rdf-syntax-ns#"
   xmlns:svg="http://www.w3.org/2000/svg"
   xmlns="http://www.w3.org/2000/svg"
   xmlns:sodipodi="http://sodipodi.sourceforge.net/DTD/sodipodi-0.dtd"
   xmlns:inkscape="http://www.inkscape.org/namespaces/inkscape"
   width="32"
   height="32"
   viewBox="0 0 32.000001 32"
   id="svg4765"
   version="1.1"
   inkscape:version="0.91 r13725"
   inkscape:export-filename="E:\Misc\Download\RE__Activation_for_ReLive_Press_Materials_and_Driver\32.png"
   inkscape:export-xdpi="90"
   inkscape:export-ydpi="90"
   sodipodi:docname="ocat-small.svg">
  <defs
     id="defs4767" />
  <sodipodi:namedview
     id="base"
     pagecolor="#ffffff"
     bordercolor="#666666"
     borderopacity="1.0"
     inkscape:pageopacity="0.0"
     inkscape:pageshadow="2"
     inkscape:zoom="15.839192"
     inkscape:cx="0.11904742"
     inkscape:cy="20.132885"
     inkscape:document-units="px"
     inkscape:current-layer="layer1"
     showgrid="true"
     fit-margin-top="0"
     fit-margin-left="0"
     fit-margin-right="0"
     fit-margin-bottom="0"
     units="px"
     inkscape:snap-bbox="true"
     inkscape:object-nodes="true"
     inkscape:snap-smooth-nodes="true"
     inkscape:window-width="1920"
     inkscape:window-height="1177"
     inkscape:window-x="-8"
     inkscape:window-y="-8"
     inkscape:window-maximized="1">
    <inkscape:grid
       type="xygrid"
       id="grid5323"
       spacingx="0.50000002"
       spacingy="0.5"
       empspacing="8" />
  </sodipodi:namedview>
  <metadata
     id="metadata4770">
    <rdf:RDF>
      <cc:Work
         rdf:about="">
        <dc:format>image/svg+xml</dc:format>
        <dc:type
           rdf:resource="http://purl.org/dc/dcmitype/StillImage" />
        <dc:title></dc:title>
      </cc:Work>
    </rdf:RDF>
  </metadata>
  <g
     inkscape:label="Ebene 1"
     inkscape:groupmode="layer"
     id="layer1"
     transform="translate(393.9632,274.93839)">
    <g
       id="g4170"
       transform="matrix(0.16805113,0,0,-0.16805113,-389.38902,-259.03276)">
      <path
         d="m 0,0 c -0.025,-39.115 30.927,-69.332 71.004,-69.32 37.598,0.011 69.021,31.621 69.223,69.635 0.2,37.547 -31.967,69.713 -69.765,69.763 C 31.004,70.13 0.025,39.319 0,0 m 107.625,78.782 c -0.779,-15.805 14.544,-26.77 28.9,-20.474 4.299,1.885 7.258,1.268 9.594,-2.736 3.113,-5.338 6.148,-10.726 9.424,-15.963 2.699,-4.315 1.841,-7.763 -1.927,-10.808 -4.43,-3.58 -6.748,-8.353 -7.533,-13.868 -1.435,-10.09 2.489,-17.141 12.018,-21.932 6.759,-3.398 7.097,-4.126 4.93,-11.272 -1.516,-5 -3.03,-10.002 -4.672,-14.962 -2.013,-6.078 -3.008,-6.782 -9.302,-6.171 -5.574,0.541 -10.749,-0.344 -15.407,-3.544 -7.704,-5.292 -10.24,-14.041 -6.733,-23.052 3.213,-8.257 2.931,-9.251 -4.641,-13.66 -4.243,-2.471 -8.598,-4.754 -12.945,-7.039 -6.053,-3.182 -7.358,-2.916 -11.814,2.12 -7.7,8.704 -15.516,10.369 -25.971,5.658 -4.636,-2.089 -7.36,-5.66 -9.26,-10.285 -2.823,-6.872 -4.756,-7.642 -12.009,-5.522 -4.862,1.421 -9.725,2.856 -14.521,4.478 -5.941,2.01 -6.98,3.464 -6.432,9.802 0.515,5.958 -0.517,11.348 -4.34,16.064 -5.728,7.067 -13.945,9.342 -22.62,6.255 -8.892,-3.166 -8.929,-3.188 -13.802,5.024 -2.747,4.63 -5.385,9.327 -8.007,14.031 -1.94,3.481 -1.089,6.379 2.042,8.723 1.523,1.14 3.071,2.258 4.505,3.503 10.726,9.318 8.438,25.181 -4.265,31.493 -11.018,5.475 -11.834,3.77 -7.915,17.352 1.009,3.498 2.13,6.973 2.923,10.52 1.046,4.671 3.758,6.585 8.515,6.291 2.819,-0.174 5.737,-0.02 8.506,0.518 12.74,2.475 19.737,16.331 15.591,26.331 -3.221,7.768 -2.174,9.39 5.213,13.779 3.678,2.185 7.441,4.227 11.154,6.352 6.168,3.529 7.931,3.405 12.774,-1.83 6.569,-7.101 14.275,-9.548 23.643,-6.694 5.342,1.627 9.064,4.724 11.309,9.97 3.408,7.967 4.795,8.494 12.955,6.248 4.119,-1.133 8.228,-2.308 12.322,-3.53 8.232,-2.457 8.227,-2.476 7.798,-11.17"
         style="fill:#000000;fill-opacity:1;fill-rule:nonzero;stroke:none"
         id="path4172"
         inkscape:connector-curvature="0" />
    </g>
    <path
       d="m -367.53642,-260.13176 c -0.8537,-3.79258 -2.98997,-6.40107 -6.66861,-7.70935 -0.25817,-0.0973 -0.25817,-0.0973 -0.75817,-1.59728 -0.5,-1 -0.75328,-0.53865 -0.84722,-0.45608 l -1.15278,1.45608 c -0.26149,-0.0609 -0.91778,-0.0558 -1.19759,-0.0558 -0.3166,0 -0.62212,0.0453 -0.9147,0.12285 l -1.45617,-1.52305 c -0.0941,-0.0825 -0.24181,-0.0286 -0.26096,0.0955 l -0.46248,3.08357 c -0.0255,0.0625 -0.007,0.0133 -0.007,0.0242 -0.33543,0.54752 -0.48164,1.10444 -0.48164,1.79428 0,1.75463 1.28054,3.45848 2.28054,3.45848 l 1.5,0 c 0.5,0 1,0.5 1,1 l 0,5 0,4.5 c 0,1 -2,0.5 -3.5,0 -1.5,-0.5 -3,-1.5 -4.5,-4.5 -1.5,-3 -0.5,-6 0.5,-7.5 1,-1.5 1.5,-2 1.5,-2.5 0,-0.5 -0.0152,-2.35122 -1,-1.5 -3.9912,3.03685 -4.99207,7.23876 -3,12.5 1.99207,5.26124 8.25658,6.77614 13,5 4.71199,-1.76436 7.45452,-6.06694 6.42706,-10.69321"
       style="fill:#000000;fill-opacity:1;fill-rule:nonzero;stroke:none"
       id="path4176"
       inkscape:connector-curvature="0"
       sodipodi:nodetypes="cccccscccccszzzszzzzzczsc" />
  </g>
</svg>
