<?xml version="1.0" encoding="UTF-8" standalone="no"?>
<!-- Created with Inkscape (http://www.inkscape.org/) -->

<svg
   xmlns:dc="http://purl.org/dc/elements/1.1/"
   xmlns:cc="http://creativecommons.org/ns#"
   xmlns:rdf="http://www.w3.org/1999/02/22-rdf-syntax-ns#"
   xmlns:svg="http://www.w3.org/2000/svg"
   xmlns="http://www.w3.org/2000/svg"
   xmlns:sodipodi="http://sodipodi.sourceforge.net/DTD/sodipodi-0.dtd"
   xmlns:inkscape="http://www.inkscape.org/namespaces/inkscape"
   id="svg4136"
   version="1.1"
   inkscape:version="0.91 r13725"
   xml:space="preserve"
   width="256"
   height="256"
   viewBox="0 0 256 256"
   sodipodi:docname="ocat-large.svg"
   inkscape:export-filename="E:\Misc\Download\RE__Activation_for_ReLive_Press_Materials_and_Driver\256.png"
   inkscape:export-xdpi="90"
   inkscape:export-ydpi="90"><metadata
     id="metadata4142"><rdf:RDF><cc:Work
         rdf:about=""><dc:format>image/svg+xml</dc:format><dc:type
           rdf:resource="http://purl.org/dc/dcmitype/StillImage" /><dc:title></dc:title></cc:Work></rdf:RDF></metadata><defs
     id="defs4140" /><sodipodi:namedview
     pagecolor="#ffffff"
     bordercolor="#666666"
     borderopacity="1"
     objecttolerance="10"
     gridtolerance="10"
     guidetolerance="10"
     inkscape:pageopacity="0"
     inkscape:pageshadow="2"
     inkscape:window-width="1920"
     inkscape:window-height="1177"
     id="namedview4138"
     showgrid="true"
     inkscape:snap-bbox="true"
     inkscape:snap-bbox-midpoints="true"
     inkscape:zoom="0.64"
     inkscape:cx="242.61509"
     inkscape:cy="6.8797393"
     inkscape:window-x="-8"
     inkscape:window-y="-8"
     inkscape:window-maximized="1"
     inkscape:current-layer="g4148"><inkscape:grid
       type="xygrid"
       id="grid4750"
       spacingx="0.5"
       spacingy="0.5"
       empspacing="16" /></sodipodi:namedview><g
     id="g4144"
     inkscape:groupmode="layer"
     inkscape:label="OCAT Icon"
     transform="matrix(1.25,0,0,-1.25,0,256)"><g
       id="g4146"><g
         id="g4148"
         clip-path="url(#clipPath4150)"><g
           id="g4154"
           transform="matrix(1.8551946,0,0,1.8551946,437.30985,102.087)"><path
             d="m 0,0 c 0.597,16.77 7.642,29.937 22.727,37.767 15.362,7.973 30.715,7.1 45.419,-2.249 1.141,-0.726 2.165,-1.67 3.135,-2.622 1.953,-1.916 2.321,-4.289 0.586,-6.321 -1.777,-2.082 -4.108,-1.99 -6.27,-0.174 C 58.614,32.267 50.531,34.667 41.47,34.216 25.903,33.442 14.142,23.859 10.254,8.649 6.102,-7.592 14.089,-24.933 29.236,-31.11 c 12.994,-5.3 25.433,-4.036 36.452,5.393 1.346,1.152 2.778,2.272 4.638,1.946 1.476,-0.258 2.696,-0.995 3.264,-2.676 0.77,-2.282 -0.234,-3.884 -1.686,-5.317 -5.639,-5.563 -12.499,-8.85 -20.238,-10.112 -16.744,-2.729 -33.525,2.08 -44.393,17.693 C 2.269,-16.995 -0.113,-8.859 0,0"
             style="fill:#000000;fill-opacity:1;fill-rule:nonzero;stroke:none"
             id="path4156"
             inkscape:connector-curvature="0" /></g><g
           id="g4158"
           transform="matrix(1.8551946,0,0,1.8551946,787.70991,96.602115)"><path
             d="m 0,0 c 0,-10.583 0.004,-21.166 -0.006,-31.749 -0.001,-1.117 -0.021,-2.242 -0.143,-3.351 -0.296,-2.685 -2.104,-3.949 -4.543,-3.99 -2.537,-0.042 -4.126,1.514 -4.557,4.036 -0.166,0.97 -0.066,1.987 -0.066,2.983 -0.002,21.539 -0.1,43.079 0.095,64.616 0.033,3.564 -1.076,4.268 -4.308,4.121 -5.591,-0.253 -11.202,-0.07 -16.805,-0.07 -0.871,0 -1.753,-0.088 -2.612,0.018 -2.464,0.305 -4.28,1.34 -4.211,4.201 0.07,2.898 1.861,3.806 4.439,3.805 5.976,-0.004 11.953,0.007 17.929,0.007 12.45,0.002 24.901,-0.021 37.351,0.017 2.869,0.009 5.473,-0.407 5.416,-3.982 C 27.924,37.238 25.44,36.56 22.531,36.579 16.182,36.623 9.828,36.462 3.484,36.659 0.792,36.743 -0.129,36.162 -0.078,33.241 0.115,22.164 0,11.081 0,0"
             style="fill:#000000;fill-opacity:1;fill-rule:nonzero;stroke:none"
             id="path4160"
             inkscape:connector-curvature="0" /></g><g
           id="g4162"
           transform="matrix(1.8551946,0,0,1.8551946,333.00153,39.03654)"><path
             d="M 0,0 C -19.263,-0.012 -34.015,14.843 -34.016,34.257 -34.017,53.469 -19.304,68.24 -0.123,68.283 18.83,68.326 33.804,53.255 33.718,34.223 33.63,14.845 19.017,0.012 0,0 m 0.385,76.992 c -24.231,0.097 -43.44,-18.797 -43.52,-42.808 -0.081,-24.04 18.397,-42.697 42.453,-42.866 24.305,-0.171 43.592,18.934 43.6,43.187 0.008,23.691 -18.712,42.39 -42.533,42.487"
             style="fill:#000000;fill-opacity:1;fill-rule:nonzero;stroke:none"
             id="path4164"
             inkscape:connector-curvature="0" /></g><g
           id="g4166"
           transform="matrix(1.8551946,0,0,1.8551946,624.53906,83.66139)"><path
             d="M 0,0 C 0.809,1.952 1.446,3.531 2.115,5.095 7.207,16.994 12.305,28.89 17.626,41.311 23.601,27.252 29.352,13.722 35.185,0 L 0,0 Z M 55.732,-24.747 C 45.377,-0.868 34.966,22.987 24.555,46.841 23.27,49.783 21.656,52.338 17.84,52.244 14.107,52.153 12.513,49.711 11.197,46.705 0.852,23.087 -9.541,-0.51 -19.896,-24.124 c -0.49,-1.117 -0.76,-2.331 -0.875,-2.689 -0.27,-2.701 0.555,-3.965 2.173,-4.742 3.108,-1.491 4.992,0.001 6.205,2.717 2.815,6.307 5.637,12.614 8.269,18.998 0.742,1.797 1.656,2.333 3.546,2.319 12.076,-0.089 24.154,-0.105 36.229,0.011 2.142,0.02 2.966,-0.786 3.723,-2.649 2.503,-6.169 5.168,-12.275 7.899,-18.348 1.511,-3.359 3.787,-4.363 6.447,-3.136 3.295,1.52 3.191,4.178 2.012,6.896"
             style="fill:#000000;fill-opacity:1;fill-rule:nonzero;stroke:none"
             id="path4168"
             inkscape:connector-curvature="0" /></g><g
           id="g4170"
           transform="matrix(1.0718805,0,0,1.0718805,28.976296,103.00959)"><path
             d="m 0,0 c -0.025,-39.115 30.927,-69.332 71.004,-69.32 37.598,0.011 69.021,31.621 69.223,69.635 0.2,37.547 -31.967,69.713 -69.765,69.763 C 31.004,70.13 0.025,39.319 0,0 m 107.625,78.782 c -0.779,-15.805 14.544,-26.77 28.9,-20.474 4.299,1.885 7.258,1.268 9.594,-2.736 3.113,-5.338 6.148,-10.726 9.424,-15.963 2.699,-4.315 1.841,-7.763 -1.927,-10.808 -4.43,-3.58 -6.748,-8.353 -7.533,-13.868 -1.435,-10.09 2.489,-17.141 12.018,-21.932 6.759,-3.398 7.097,-4.126 4.93,-11.272 -1.516,-5 -3.03,-10.002 -4.672,-14.962 -2.013,-6.078 -3.008,-6.782 -9.302,-6.171 -5.574,0.541 -10.749,-0.344 -15.407,-3.544 -7.704,-5.292 -10.24,-14.041 -6.733,-23.052 3.213,-8.257 2.931,-9.251 -4.641,-13.66 -4.243,-2.471 -8.598,-4.754 -12.945,-7.039 -6.053,-3.182 -7.358,-2.916 -11.814,2.12 -7.7,8.704 -15.516,10.369 -25.971,5.658 -4.636,-2.089 -7.36,-5.66 -9.26,-10.285 -2.823,-6.872 -4.756,-7.642 -12.009,-5.522 -4.862,1.421 -9.725,2.856 -14.521,4.478 -5.941,2.01 -6.98,3.464 -6.432,9.802 0.515,5.958 -0.517,11.348 -4.34,16.064 -5.728,7.067 -13.945,9.342 -22.62,6.255 -8.892,-3.166 -8.929,-3.188 -13.802,5.024 -2.747,4.63 -5.385,9.327 -8.007,14.031 -1.94,3.481 -1.089,6.379 2.042,8.723 1.523,1.14 3.071,2.258 4.505,3.503 10.726,9.318 8.438,25.181 -4.265,31.493 -11.018,5.475 -11.834,3.77 -7.915,17.352 1.009,3.498 2.13,6.973 2.923,10.52 1.046,4.671 3.758,6.585 8.515,6.291 2.819,-0.174 5.737,-0.02 8.506,0.518 12.74,2.475 19.737,16.331 15.591,26.331 -3.221,7.768 -2.174,9.39 5.213,13.779 3.678,2.185 7.441,4.227 11.154,6.352 6.168,3.529 7.931,3.405 12.774,-1.83 6.569,-7.101 14.275,-9.548 23.643,-6.694 5.342,1.627 9.064,4.724 11.309,9.97 3.408,7.967 4.795,8.494 12.955,6.248 4.119,-1.133 8.228,-2.308 12.322,-3.53 8.232,-2.457 8.227,-2.476 7.798,-11.17"
             style="fill:#000000;fill-opacity:1;fill-rule:nonzero;stroke:none"
             id="path4172"
             inkscape:connector-curvature="0" /></g><g
           id="g4174"
           transform="matrix(1.0718805,0,0,1.0718805,168.35875,110.01935)"><path
             d="m 0,0 c -5.08,22.568 -17.792,38.09 -39.682,45.875 -1.98,0.705 -4.442,1.546 -6.797,1.912 -0.11,0.017 -1.203,9.739 -1.203,9.739 -0.114,0.738 -0.994,1.059 -1.553,0.568 l -9.152,-8.906 c -1.556,0.363 -3.169,0.574 -4.834,0.574 -1.884,0 -3.702,-0.27 -5.443,-0.731 l -8.665,9.063 c -0.56,0.491 -1.439,0.17 -1.553,-0.568 l -2.752,-18.349 c -0.152,-0.372 -0.046,-0.079 -0.042,-0.144 -1.996,-3.258 -2.866,-6.572 -2.866,-10.677 0,-10.441 7.45,-19.124 17.302,-21.013 0,0 3.041,-0.577 4.541,-0.623 2.566,-0.08 2.243,-2.776 2.222,-5.161 -0.087,-9.997 -0.037,-19.994 -0.037,-29.992 0,-9.372 -0.008,-18.745 0.003,-28.118 0.008,-6.558 -0.008,-6.725 -6.527,-5.651 -20.257,3.338 -34.602,14.328 -41.284,33.592 -6.68,19.261 -2.803,37.158 11.287,52.016 2.712,2.86 5.659,5.653 7.981,8.813 1.129,1.535 1.535,3.134 0.147,4.689 -1.299,1.455 -3.077,1.725 -4.775,1.024 -1.43,-0.59 -2.735,-1.547 -3.978,-2.493 -23.75,-18.071 -29.613,-51.002 -15.014,-76.822 14.757,-26.101 46.096,-37.897 74.322,-27.328 C -10.313,-58.212 6.114,-27.529 0,0"
             style="fill:#000000;fill-opacity:1;fill-rule:nonzero;stroke:none"
             id="path4176"
             inkscape:connector-curvature="0" /></g></g></g></g></svg>